
<svg version="1.1" id="Layer_1" xmlns="http://www.w3.org/2000/svg" xmlns:xlink="http://www.w3.org/1999/xlink" x="0px" y="0px"
	 width="100%" viewBox="0 0 401 83" enable-background="new 0 0 401 83" xml:space="preserve">
<path fill="#FFFEFE" opacity="1.000000" stroke="none" 
	d="
M305.000000,84.000000 
	C204.666672,84.000000 104.833336,83.977470 5.000149,84.095551 
	C1.576133,84.099602 0.874120,83.427948 0.899304,79.999298 
	C1.085365,54.667332 1.041740,29.333200 0.934669,4.000322 
	C0.924100,1.499569 1.500803,0.936302 3.999987,0.937642 
	C135.666611,1.008260 267.333252,1.008255 398.999878,0.937668 
	C401.498718,0.936328 402.075714,1.499117 402.065338,4.000177 
	C401.958771,29.666397 401.958801,55.333401 402.065277,80.999619 
	C402.075653,83.500214 401.500488,84.072693 398.999878,84.064758 
	C367.833527,83.965805 336.666687,84.000000 305.000000,84.000000 
z"/>
<path fill="#0A0A0A" opacity="1.000000" stroke="none" 
	d="
M216.331711,46.001251 
	C216.332016,47.802891 216.191132,49.153572 216.361847,50.463646 
	C216.725952,53.257767 215.715942,54.145336 212.838120,54.122498 
	C210.018997,54.100124 209.127594,53.329254 209.205124,50.469139 
	C209.399139,43.313408 209.229355,36.148491 209.302643,28.988247 
	C209.317673,27.518831 208.507660,25.071955 211.154053,25.263142 
	C213.648788,25.443373 216.950882,23.378868 218.512634,27.239250 
	C220.754349,32.780399 223.007690,38.316853 225.731445,45.026329 
	C228.106140,39.073456 230.112167,33.981804 232.169205,28.910841 
	C233.487991,25.659796 238.010071,23.818123 240.979538,25.189428 
	C242.447876,25.867514 241.989075,27.127218 241.994812,28.184879 
	C242.036240,35.845249 241.820129,43.513351 242.107697,51.163136 
	C242.234680,54.540871 240.332855,53.910225 238.369766,54.049862 
	C235.993683,54.218884 234.700806,53.794636 234.914108,50.896778 
	C235.194321,47.089630 234.982895,43.246292 234.982895,38.492779 
	C232.271912,42.596813 231.513779,46.616444 229.971359,50.281742 
	C229.174957,52.174206 228.927399,54.210579 225.806763,54.157337 
	C222.886932,54.107521 222.250534,52.550545 221.442337,50.448769 
	C220.180710,47.167789 219.445236,43.627167 217.301086,40.450741 
	C215.792389,42.267433 216.558304,43.975109 216.331711,46.001251 
z"/>
<path fill="#FED708" opacity="1.000000" stroke="none" 
	d="
M66.012375,42.155182 
	C66.012886,54.863811 66.012886,54.863811 53.749557,54.860977 
	C41.114456,54.858051 41.079655,54.858227 41.015839,42.133289 
	C41.002571,39.487392 41.232582,37.070164 37.321564,37.505241 
	C35.470097,37.711208 34.563602,36.342339 34.878632,34.588985 
	C35.279827,32.356041 33.331348,29.192556 36.671253,28.077602 
	C40.594528,26.767899 44.695332,25.977259 48.740318,25.054321 
	C49.684586,24.838865 50.810448,24.838589 51.471714,25.785097 
	C52.054729,26.619606 51.673286,27.400038 50.884544,27.874035 
	C48.827240,29.110373 49.832813,30.411524 50.903671,31.484053 
	C52.210155,32.792580 53.868019,33.011494 55.461418,31.966204 
	C56.950401,30.989414 58.047668,29.564394 57.001808,27.805847 
	C56.059994,26.222263 55.017639,24.829355 55.021671,22.838005 
	C55.027092,20.162096 55.156918,16.747353 51.473530,21.011288 
	C51.011257,21.546423 50.415543,21.875065 49.749256,21.441435 
	C48.962463,20.929375 48.789246,20.085236 49.024975,19.247667 
	C49.631699,17.091898 51.053360,15.877278 53.340668,15.790952 
	C55.902969,15.694246 58.109768,17.113527 57.854130,19.397686 
	C57.155098,25.643557 61.544598,25.947351 65.571358,26.716017 
	C69.767944,27.517101 73.346909,28.443386 72.264717,34.151558 
	C71.864502,36.262600 71.511299,37.795788 69.132721,37.570873 
	C65.711517,37.247364 65.898575,39.439911 66.012375,42.155182 
z"/>
<path fill="#080808" opacity="1.000000" stroke="none" 
	d="
M301.082031,54.009933 
	C297.301422,54.548512 295.126312,53.344933 293.409149,50.277985 
	C290.991882,45.960663 288.018097,41.954945 284.816742,37.111660 
	C283.692261,41.969707 284.217682,46.059879 284.256989,50.080647 
	C284.284058,52.854122 283.976654,54.150215 280.593079,54.163429 
	C276.949646,54.177654 277.089966,52.362827 277.121368,49.853725 
	C277.204865,43.188511 277.068756,36.519848 277.209442,29.856554 
	C277.242859,28.273075 275.995728,25.674637 278.644409,25.306170 
	C281.054901,24.970842 283.864532,24.171244 285.725128,27.269087 
	C288.686554,32.199726 291.987976,36.926140 295.986816,43.021118 
	C295.986816,37.207527 296.121674,32.812977 295.935974,28.432013 
	C295.825439,25.824549 296.662292,25.028166 299.294647,25.058350 
	C301.897369,25.088198 303.176910,25.431318 303.085266,28.519501 
	C302.862885,36.012440 303.047455,43.516766 302.975800,51.015621 
	C302.965240,52.120888 303.807831,53.893059 301.082031,54.009933 
z"/>
<path fill="#E91616" opacity="1.000000" stroke="none" 
	d="
M136.942535,50.888008 
	C137.141968,55.648849 133.868057,53.641911 131.999924,53.960075 
	C129.613266,54.366550 129.919052,52.493336 129.917694,51.029766 
	C129.910599,43.367878 129.962265,35.705517 129.886246,28.044384 
	C129.865631,25.967222 130.462708,25.010845 132.707977,25.112425 
	C136.032684,25.262835 139.374908,25.039650 142.698074,25.206583 
	C146.810104,25.413141 150.358826,27.085941 151.701645,31.153431 
	C153.064301,35.280983 152.099197,39.215347 148.108536,41.594646 
	C146.269196,42.691296 146.397064,43.608746 147.289154,45.100071 
	C148.895462,47.785355 150.427322,50.515163 152.382706,53.907089 
	C148.672729,53.512169 145.245789,55.778831 143.015686,51.354820 
	C141.581299,48.509281 140.385559,45.397362 136.943085,41.968300 
	C136.943085,45.669983 136.943085,48.051586 136.942535,50.888008 
z"/>
<path fill="#0A0A0A" opacity="1.000000" stroke="none" 
	d="
M245.950485,51.753159 
	C248.884857,43.612362 251.893600,35.911495 254.422348,28.056110 
	C255.420181,24.956394 257.350983,25.187819 259.694489,25.098536 
	C262.200867,25.003050 263.926239,25.303488 264.885071,28.197014 
	C267.690552,36.663059 270.842896,45.014160 273.990204,53.774654 
	C270.199249,53.957958 266.565063,55.540279 264.981171,49.994137 
	C264.252533,47.442753 254.117249,48.782997 253.369965,51.589413 
	C252.507462,54.828564 250.256714,54.026035 248.302277,53.932137 
	C247.393219,53.888458 244.697342,55.317482 245.950485,51.753159 
z"/>
<path fill="#E91A1A" opacity="1.000000" stroke="none" 
	d="
M164.414719,54.047508 
	C161.801117,53.670822 159.754990,52.871857 158.285660,51.229214 
	C156.907806,49.688839 154.716049,47.510242 156.632523,45.771572 
	C158.050446,44.485188 161.028412,44.611088 163.125992,46.031235 
	C163.772537,46.468960 164.057800,47.461220 164.714752,47.858524 
	C166.423569,48.891964 168.479507,49.130836 169.634064,47.365143 
	C170.911789,45.411079 169.579941,43.888447 167.678192,43.101486 
	C165.386795,42.153286 162.961273,41.513065 160.713928,40.478584 
	C157.624176,39.056343 155.718155,36.724686 155.918335,33.067963 
	C156.123520,29.319715 158.054153,26.762619 161.504196,25.622665 
	C165.571838,24.278648 169.738937,24.227047 173.459244,26.693050 
	C175.534653,28.068745 178.055740,30.571291 176.526855,32.627041 
	C175.291519,34.288086 171.719635,34.078217 169.345612,32.351650 
	C168.701736,31.883373 168.194016,31.135092 167.489441,30.862152 
	C165.972672,30.274584 164.464081,30.395233 163.700104,32.104706 
	C163.022705,33.620472 163.872375,34.713886 165.161819,35.326904 
	C167.099106,36.247913 169.101868,37.043766 171.114624,37.790894 
	C175.226440,39.317181 178.086807,41.747166 177.455780,46.607151 
	C176.884384,51.007828 173.429016,53.810963 168.317459,54.134544 
	C167.162262,54.207676 165.996368,54.111847 164.414719,54.047508 
z"/>
<path fill="#E91717" opacity="1.000000" stroke="none" 
	d="
M113.113129,25.144299 
	C116.415764,25.144188 119.242737,25.245394 122.058662,25.112473 
	C124.230736,25.009943 125.425705,25.413523 125.421524,28.017225 
	C125.417473,30.543438 124.385040,31.170498 122.131508,30.974657 
	C120.484039,30.831486 118.805679,31.055315 117.155602,30.927774 
	C114.919044,30.754904 114.803581,32.079330 114.842186,33.740963 
	C114.879143,35.331738 114.893898,36.815975 117.121124,36.637730 
	C117.450607,36.611362 117.831154,36.539078 118.109230,36.663811 
	C120.093376,37.553802 123.959488,34.465328 124.050377,39.282829 
	C124.153023,44.723267 119.954475,41.621387 117.834389,41.925156 
	C115.465530,42.264565 114.803619,42.899887 114.785667,45.206371 
	C114.767052,47.598053 115.545738,48.521935 117.923439,48.293346 
	C119.403664,48.151035 120.922798,48.400459 122.400177,48.244267 
	C124.999962,47.969398 125.397308,49.348179 125.397728,51.517654 
	C125.398109,53.485577 124.673508,54.261009 122.762299,54.019749 
	C122.435532,53.978500 122.098816,54.021835 121.766983,54.013954 
	C117.313805,53.908180 111.531349,55.455509 108.771767,53.239315 
	C105.862160,50.902649 108.046394,44.873264 107.844040,40.464291 
	C107.684364,36.985355 108.072029,33.468510 107.743416,30.013508 
	C107.371841,26.106840 108.675941,24.435722 113.113129,25.144299 
z"/>
<path fill="#E91C1C" opacity="1.000000" stroke="none" 
	d="
M195.397217,32.329659 
	C198.739136,24.531073 198.739136,24.531073 206.256897,25.701582 
	C204.721848,28.749699 203.358124,31.730156 201.757217,34.577229 
	C198.815643,39.808487 195.722794,44.947563 196.733490,51.359825 
	C197.101746,53.696194 195.705093,54.329456 193.749191,53.993450 
	C192.233871,53.733128 189.357391,55.166985 189.728485,52.035896 
	C190.741211,43.490719 185.469223,37.297195 182.164383,30.352442 
	C181.462860,28.878275 180.762039,27.403778 180.010574,25.823641 
	C190.145386,22.082390 189.294266,31.677576 192.925949,36.050072 
	C194.448700,35.454052 194.520111,33.828114 195.397217,32.329659 
z"/>
<path fill="#E91716" opacity="1.000000" stroke="none" 
	d="
M102.013748,42.772701 
	C101.848824,51.688984 97.559303,55.512794 89.885803,54.015343 
	C87.515747,53.552841 85.406380,52.475739 84.173714,50.360691 
	C83.126846,48.564445 81.444916,45.922073 83.558769,44.657089 
	C85.067963,43.753948 88.519531,42.788471 89.908524,46.170341 
	C90.516953,47.651711 91.598785,48.246357 93.071114,47.805725 
	C94.834541,47.277981 95.003822,45.780853 94.995552,44.193779 
	C94.967804,38.868458 95.140472,33.536697 94.926598,28.219866 
	C94.807961,25.270363 96.267097,25.126503 98.553368,25.081760 
	C100.993622,25.034004 102.198883,25.517347 102.070290,28.327572 
	C101.857513,32.977604 102.013298,37.644501 102.013748,42.772701 
z"/>
<path fill="#E91C0E" opacity="1.000000" stroke="none" 
	d="
M45.874458,43.000847 
	C46.448158,38.080593 49.066788,35.714176 53.565380,35.943996 
	C57.370087,36.138367 59.673172,38.484493 60.046970,42.254925 
	C60.445187,46.271622 58.457638,48.969692 54.552971,49.953148 
	C50.389164,51.001873 47.318146,48.586594 45.874458,43.000847 
z"/>
<path fill="#FEF9F9" opacity="1.000000" stroke="none" 
	d="
M142.386078,31.169485 
	C145.141113,32.531273 145.809067,34.455391 144.387589,36.653461 
	C142.799500,39.109177 139.982986,38.389767 137.992706,37.823612 
	C135.846802,37.213192 136.918747,34.628540 137.022476,33.014282 
	C137.260803,29.305389 140.268051,31.652279 142.386078,31.169485 
z"/>
<path fill="#DDDDDD" opacity="1.000000" stroke="none" 
	d="
M258.307922,36.463833 
	C258.630981,35.657482 258.678680,35.035458 259.011047,34.770370 
	C260.539551,33.551342 260.482635,35.487297 260.569855,35.873711 
	C261.131866,38.363415 263.212555,40.675041 262.278015,43.183277 
	C262.038605,43.825855 258.807861,43.853848 257.198853,43.359222 
	C255.201889,42.745331 257.056702,41.187771 257.143402,40.080559 
	C257.230225,38.971397 257.803558,37.900322 258.307922,36.463833 
z"/>
<path fill="#F79305" opacity="1.000000" stroke="none" 
	d="
M54.188843,43.996811 
	C53.773438,44.683632 53.374950,45.292179 52.814754,45.551788 
	C51.504772,46.158867 50.118549,45.489403 50.285404,44.283813 
	C50.523098,42.566406 52.187290,44.677536 53.343552,43.735294 
	C53.656422,43.656509 54.132282,43.759983 54.188843,43.996811 
z"/>
<path fill="#F79305" opacity="1.000000" stroke="none" 
	d="
M55.707932,41.887589 
	C56.139828,41.227982 56.687962,40.595039 56.421684,42.093468 
	C56.237061,42.241333 55.755676,42.129982 55.707932,41.887589 
z"/>
<path fill="#F79305" opacity="1.000000" stroke="none" 
	d="
M54.712814,42.898682 
	C54.778389,42.348713 54.973751,42.094856 55.455917,41.774864 
	C55.660191,41.645199 55.946068,41.943382 56.091564,42.092358 
	C56.109318,42.547615 55.915585,42.804047 55.439674,43.122299 
	C55.223495,43.233971 54.760071,43.131264 54.712814,42.898682 
z"/>
<path fill="#F79305" opacity="1.000000" stroke="none" 
	d="
M55.084381,43.091644 
	C55.075199,43.516922 54.879414,43.761925 54.440773,44.101311 
	C54.245399,44.233639 53.952354,43.948444 53.804390,43.802475 
	C53.826611,43.385563 54.035721,43.149029 54.474655,42.806503 
	C54.665554,42.666096 54.945263,42.949314 55.084381,43.091644 
z"/>
</svg>